<svg version="1.1" xmlns="http://www.w3.org/2000/svg" viewBox="0 0 1371.2034743429344 756.8093087115583" width="2742.406948685869" height="1513.6186174231166">
  <!-- svg-source:excalidraw -->
  
  <defs>
    <style class="style-fonts">
      
    </style>
    
  </defs>
  <g stroke-linecap="round"><g transform="translate(36.52953263345796 181.64246064692185) rotate(270 60.43643243527737 86.20307187935914)" fill-rule="evenodd"><path d="M-0.28 0.19 L121.58 0.24 L121.46 114.38 L58.09 171.33 L0.42 113.91 L-1.41 -0.43" stroke="none" stroke-width="0" fill="#e9ecef" fill-rule="evenodd"></path><path d="M0 0 C36.62 0.05, 76.18 -1.66, 120.87 -0.11 M0 0 C40.69 0.07, 80.67 0.22, 120.87 -0.11 M120.87 -0.11 C119.86 42.97, 119.94 84.01, 119.84 114.61 M120.87 -0.11 C119.42 35.88, 119.64 70.91, 119.84 114.61 M119.84 114.61 C98.03 135.41, 74.17 155.14, 57.9 172.52 M119.84 114.61 C101.3 131.69, 85.17 147.78, 57.9 172.52 M57.9 172.52 C44.86 157.91, 32.16 144.22, 1.9 113.91 M57.9 172.52 C41.54 155.15, 25.71 138.07, 1.9 113.91 M1.9 113.91 C0.82 69.97, -0.49 29.05, 0 0 M1.9 113.91 C1.26 69.2, 1.56 22.1, 0 0 M0 0 C0 0, 0 0, 0 0 M0 0 C0 0, 0 0, 0 0" stroke="#000000" stroke-width="4" fill="none"></path></g></g><mask></mask><g stroke-linecap="round"><g transform="translate(266.07250138345796 600.1698043969218) rotate(270 60.43643243527737 86.20307187935913)" fill-rule="evenodd"><path d="M1.42 -0.76 L120.62 -1.42 L118.27 114.46 L58.17 172.14 L0.61 113.7 L-0.59 0.46" stroke="none" stroke-width="0" fill="#e9ecef" fill-rule="evenodd"></path><path d="M0 0 C38.57 0.31, 73.24 2.41, 120.87 -0.11 M0 0 C35.52 -0.71, 69.03 -0.71, 120.87 -0.11 M120.87 -0.11 C121.04 34.34, 120.16 65.73, 119.84 114.61 M120.87 -0.11 C119.07 27.26, 119.32 55.55, 119.84 114.61 M119.84 114.61 C95.46 137.13, 74.43 155.23, 57.9 172.52 M119.84 114.61 C98.95 134.26, 79.11 152.89, 57.9 172.52 M57.9 172.52 C42.15 153.97, 24.27 139.42, 1.9 113.91 M57.9 172.52 C42.18 156.22, 26.39 140.2, 1.9 113.91 M1.9 113.91 C1.75 79.36, 2.36 45.7, 0 0 M1.9 113.91 C1.37 77.69, 0.45 41.63, 0 0 M0 0 C0 0, 0 0, 0 0 M0 0 C0 0, 0 0, 0 0" stroke="#000000" stroke-width="4" fill="none"></path></g></g><mask></mask><g stroke-linecap="round"><g transform="translate(41.68578263345796 395.27136689692185) rotate(270 60.43643243527737 86.2030718793591)" fill-rule="evenodd"><path d="M-1.19 -1.47 L120.87 -1.53 L119.4 114.2 L58.89 173.95 L0.48 112.12 L-0.95 1.55" stroke="none" stroke-width="0" fill="#e9ecef" fill-rule="evenodd"></path><path d="M0 0 C40.63 0.72, 79.82 1.06, 120.87 -0.11 M0 0 C44.54 0.61, 89.89 -0.33, 120.87 -0.11 M120.87 -0.11 C118.62 35.96, 119.38 70.11, 119.84 114.61 M120.87 -0.11 C121.22 41.42, 120.16 82.43, 119.84 114.61 M119.84 114.61 C100.64 132.57, 85.88 148.37, 57.9 172.52 M119.84 114.61 C105.51 126.82, 91.53 139.59, 57.9 172.52 M57.9 172.52 C41.64 154.99, 25.95 137.57, 1.9 113.91 M57.9 172.52 C36.73 149.42, 15.44 128.34, 1.9 113.91 M1.9 113.91 C0.77 69.93, 2.12 21.18, 0 0 M1.9 113.91 C1.55 78.99, -0.12 45.32, 0 0 M0 0 C0 0, 0 0, 0 0 M0 0 C0 0, 0 0, 0 0" stroke="#000000" stroke-width="4" fill="none"></path></g></g><mask></mask><g stroke-linecap="round"><g transform="translate(268.67015763345796 -15.048945603078216) rotate(270 60.43643243527737 86.20307187935913)" fill-rule="evenodd"><path d="M-0.76 -0.25 L119.56 -1.67 L119.68 114.88 L57.53 171.23 L1.68 113.32 L0.46 -0.44" stroke="none" stroke-width="0" fill="#e9ecef" fill-rule="evenodd"></path><path d="M0 0 C42.53 -1.54, 87.55 -1.4, 120.87 -0.11 M0 0 C40.58 -1.28, 81.49 -1.4, 120.87 -0.11 M120.87 -0.11 C122.58 35.17, 120.83 69.73, 119.84 114.61 M120.87 -0.11 C120.42 25.65, 120.9 52.55, 119.84 114.61 M119.84 114.61 C106.66 128.64, 89.03 141.6, 57.9 172.52 M119.84 114.61 C98.26 135.36, 75.66 155.09, 57.9 172.52 M57.9 172.52 C39.28 154.89, 25.15 136.34, 1.9 113.91 M57.9 172.52 C39.38 152.37, 21.06 134.11, 1.9 113.91 M1.9 113.91 C1.11 84.22, 0.9 52.37, 0 0 M1.9 113.91 C1.58 75.49, 1.34 37.47, 0 0 M0 0 C0 0, 0 0, 0 0 M0 0 C0 0, 0 0, 0 0" stroke="#000000" stroke-width="4" fill="none"></path></g></g><mask></mask><g stroke-linecap="round"><g transform="translate(485.6383212449872 320.602250536813) rotate(270 60.43643243527731 81.84955625435913)" fill-rule="evenodd"><path d="M-1.4 -0.3 L58.13 58.3 L120.47 -0.94 L119.61 115.19 L61.9 161.94 L3.21 115.03 L1.72 0.98" stroke="none" stroke-width="0" fill="#e9ecef" fill-rule="evenodd"></path><path d="M0 0 C21.62 19.68, 39.37 36.18, 59.21 56.97 M0 0 C22.29 21.65, 46.65 44.77, 59.21 56.97 M59.21 56.97 C81.97 34.69, 104.9 14.56, 120.87 -0.11 M59.21 56.97 C83.28 35.1, 107.42 12.21, 120.87 -0.11 M120.87 -0.11 C119.32 41.32, 121.56 83.27, 119.84 114.61 M120.87 -0.11 C120.3 34.33, 120.05 68.47, 119.84 114.61 M119.84 114.61 C99.68 129.77, 83.96 146.49, 61.58 163.81 M119.84 114.61 C104.64 128.01, 91.53 138.8, 61.58 163.81 M61.58 163.81 C44.1 147.36, 22.72 131.5, 1.9 113.91 M61.58 163.81 C37.83 143.53, 13.46 123.47, 1.9 113.91 M1.9 113.91 C0.22 81.58, 0.31 53.42, 0 0 M1.9 113.91 C1.54 77.65, -0.37 40.99, 0 0 M0 0 C0 0, 0 0, 0 0 M0 0 C0 0, 0 0, 0 0" stroke="#000000" stroke-width="4" fill="none"></path></g></g><mask></mask><g stroke-linecap="round"><g transform="translate(836.2437899949872 502.465531786813) rotate(270 60.43643243527731 81.84955625435913)" fill-rule="evenodd"><path d="M0.08 -1.51 L60.9 56.63 L118.98 -1.99 L121.76 113.4 L63.01 165.6 L0.06 115.91 L-1.5 -1.59" stroke="none" stroke-width="0" fill="#e9ecef" fill-rule="evenodd"></path><path d="M0 0 C18.56 17.48, 37.62 37.31, 59.21 56.97 M0 0 C17.11 17.33, 36.53 35.05, 59.21 56.97 M59.21 56.97 C82.31 34.88, 104.39 16.2, 120.87 -0.11 M59.21 56.97 C81.76 34.96, 105.02 14.51, 120.87 -0.11 M120.87 -0.11 C121.1 41.94, 119.99 79.32, 119.84 114.61 M120.87 -0.11 C119.75 32.19, 119.55 65.6, 119.84 114.61 M119.84 114.61 C102.09 132.26, 83.56 146.93, 61.58 163.81 M119.84 114.61 C107.48 125.11, 91.96 138.24, 61.58 163.81 M61.58 163.81 C42.03 150.61, 23.46 131.07, 1.9 113.91 M61.58 163.81 C39.13 144.44, 16 124.2, 1.9 113.91 M1.9 113.91 C0.4 80.44, 2.2 46.78, 0 0 M1.9 113.91 C1.81 88.83, 1.03 64.64, 0 0 M0 0 C0 0, 0 0, 0 0 M0 0 C0 0, 0 0, 0 0" stroke="#000000" stroke-width="4" fill="none"></path></g></g><mask></mask><g stroke-linecap="round"><g transform="translate(202.9419411802645 274.395395402561) rotate(0 141.392578125 65.017578125)"><path d="M-0.62 -0.56 C46.21 21.26, 234.76 108.73, 282.13 130.32 M1.25 1.76 C48.39 23.25, 237.5 107.02, 284.49 128.34" stroke="#1e1e1e" stroke-width="4" fill="none"></path></g><g transform="translate(202.9419411802645 274.395395402561) rotate(0 141.392578125 65.017578125)"><path d="M259.56 126.55 C268.41 126.28, 279.59 129.36, 284.49 128.34 M259.56 126.55 C263.89 127.5, 270.58 127.48, 284.49 128.34" stroke="#1e1e1e" stroke-width="4" fill="none"></path></g><g transform="translate(202.9419411802645 274.395395402561) rotate(0 141.392578125 65.017578125)"><path d="M266.54 110.94 C272.58 116.76, 281.02 125.97, 284.49 128.34 M266.54 110.94 C269.44 115.2, 274.68 118.43, 284.49 128.34" stroke="#1e1e1e" stroke-width="4" fill="none"></path></g></g><mask></mask><g stroke-linecap="round"><g transform="translate(197.2700661802645 478.977426652561) rotate(0 137.59765625 -31.6015625)"><path d="M-0.88 0.48 C44.94 -10.2, 229.13 -53.55, 275.04 -63.97 M0.86 -0.32 C46.5 -10.86, 228.58 -52.26, 274 -62.84" stroke="#1e1e1e" stroke-width="4" fill="none"></path></g><g transform="translate(197.2700661802645 478.977426652561) rotate(0 137.59765625 -31.6015625)"><path d="M253.02 -49.25 C260.3 -53.57, 264.71 -58.62, 274 -62.84 M253.02 -49.25 C262.23 -54.62, 269.86 -60.49, 274 -62.84" stroke="#1e1e1e" stroke-width="4" fill="none"></path></g><g transform="translate(197.2700661802645 478.977426652561) rotate(0 137.59765625 -31.6015625)"><path d="M249.19 -65.91 C257.66 -65.05, 263.26 -64.95, 274 -62.84 M249.19 -65.91 C259.79 -64.69, 268.92 -63.97, 274 -62.84" stroke="#1e1e1e" stroke-width="4" fill="none"></path></g></g><mask></mask><g stroke-linecap="round"><g transform="translate(427.7856911802645 685.539926652561) rotate(0 196.640625 -47.923828125)"><path d="M1.16 -0.65 C66.58 -16.87, 327.19 -80.79, 392.51 -96.57 M0.32 1.62 C66.12 -14.52, 329.49 -78.9, 394.82 -95.42" stroke="#1e1e1e" stroke-width="4" fill="none"></path></g><g transform="translate(427.7856911802645 685.539926652561) rotate(0 196.640625 -47.923828125)"><path d="M374.07 -81.46 C379.13 -87.13, 385.23 -90.32, 394.82 -95.42 M374.07 -81.46 C380.73 -86.65, 387.43 -90.66, 394.82 -95.42" stroke="#1e1e1e" stroke-width="4" fill="none"></path></g><g transform="translate(427.7856911802645 685.539926652561) rotate(0 196.640625 -47.923828125)"><path d="M369.96 -98.06 C376.35 -98.79, 383.68 -97, 394.82 -95.42 M369.96 -98.06 C378.03 -97.65, 386.13 -96.03, 394.82 -95.42" stroke="#1e1e1e" stroke-width="4" fill="none"></path></g></g><mask></mask><g stroke-linecap="round"><g transform="translate(638.7974099302645 411.411020402561) rotate(0 92.994140625 80.607421875)"><path d="M-0.73 0.51 C30.65 27.26, 156.12 134.19, 187.16 161 M1.08 -0.26 C32.51 26.62, 156.26 135.26, 186.83 162.42" stroke="#1e1e1e" stroke-width="4" fill="none"></path></g><g transform="translate(638.7974099302645 411.411020402561) rotate(0 92.994140625 80.607421875)"><path d="M163.56 153.29 C169.26 157.28, 172.85 156.42, 186.83 162.42 M163.56 153.29 C169.79 156.7, 178.4 159.55, 186.83 162.42" stroke="#1e1e1e" stroke-width="4" fill="none"></path></g><g transform="translate(638.7974099302645 411.411020402561) rotate(0 92.994140625 80.607421875)"><path d="M174.87 140.47 C178.3 147.03, 179.55 148.82, 186.83 162.42 M174.87 140.47 C177.6 147.91, 182.7 154.74, 186.83 162.42" stroke="#1e1e1e" stroke-width="4" fill="none"></path></g></g><mask></mask><g stroke-linecap="round"><g transform="translate(637.028741767101 -12.575597686072186) rotate(89.99999999999994 59.29451450714316 88.21230777080228)" fill-rule="evenodd"><path d="M0.24 -0.33 L122 -0.06 L119.97 174.7 L59.46 126.88 L-3.09 175.39 L1.27 -0.3" stroke="none" stroke-width="0" fill="#e9ecef" fill-rule="evenodd"></path><path d="M0 0 C31.69 -0.34, 66.23 -2.55, 120.87 -0.11 M0 0 C33.18 -1.37, 66.98 -2.07, 120.87 -0.11 M120.87 -0.11 C120.97 69.61, 123.05 140.91, 120.73 176.54 M120.87 -0.11 C120.08 66.59, 119.26 132.23, 120.73 176.54 M120.73 176.54 C106.73 166.12, 96.18 154.28, 59.36 125.07 M120.73 176.54 C101.18 158.76, 80.86 142.33, 59.36 125.07 M59.36 125.07 C37.07 142.86, 12.53 165.56, -2.28 175.95 M59.36 125.07 C45.88 135.36, 33.12 146.54, -2.28 175.95 M-2.28 175.95 C-1.04 115.86, 0.9 59.77, 0 0 M-2.28 175.95 C-2.42 130.99, -2.24 86.13, 0 0 M0 0 C0 0, 0 0, 0 0 M0 0 C0 0, 0 0, 0 0" stroke="#000000" stroke-width="4" fill="none"></path></g></g><mask></mask><g stroke-linecap="round"><g transform="translate(1028.841241767101 173.39315231392783) rotate(89.99999999999994 59.29451450714316 88.21230777080227)" fill-rule="evenodd"><path d="M0.97 0.42 L121.8 1.05 L120.79 174.72 L58.38 123.39 L-3.19 176.76 L-0.34 0.74" stroke="none" stroke-width="0" fill="#e9ecef" fill-rule="evenodd"></path><path d="M0 0 C33.59 -1.1, 63.67 0.54, 120.87 -0.11 M0 0 C24.18 0.2, 49.32 0.42, 120.87 -0.11 M120.87 -0.11 C121.82 56.22, 120.49 113.18, 120.73 176.54 M120.87 -0.11 C122.82 37, 121.54 72.89, 120.73 176.54 M120.73 176.54 C102.85 162.82, 83.24 143.04, 59.36 125.07 M120.73 176.54 C100.07 157.82, 77.67 140.73, 59.36 125.07 M59.36 125.07 C36.82 141.65, 15.67 162.27, -2.28 175.95 M59.36 125.07 C44.59 137.88, 29.74 149.98, -2.28 175.95 M-2.28 175.95 C0.09 124.25, -0.86 68.98, 0 0 M-2.28 175.95 C-1.19 118.14, -1.19 61.31, 0 0 M0 0 C0 0, 0 0, 0 0 M0 0 C0 0, 0 0, 0 0" stroke="#000000" stroke-width="4" fill="none"></path></g></g><mask></mask><g stroke-linecap="round"><g transform="translate(1212.833429267101 496.87362106392777) rotate(89.99999999999994 59.29451450714316 88.21230777080228)" fill-rule="evenodd"><path d="M1.17 0.05 L119.06 -1.09 L119.05 175.63 L60.17 124.73 L-1.54 177.77 L-1.55 1.94" stroke="none" stroke-width="0" fill="#e9ecef" fill-rule="evenodd"></path><path d="M0 0 C44.34 -1.41, 88.97 -0.83, 120.87 -0.11 M0 0 C30.54 0.13, 61.36 -0.16, 120.87 -0.11 M120.87 -0.11 C118.86 65.17, 121.88 132.13, 120.73 176.54 M120.87 -0.11 C120.03 58.08, 120.52 116.53, 120.73 176.54 M120.73 176.54 C97.11 159.67, 78.95 139, 59.36 125.07 M120.73 176.54 C98.02 157.37, 73.92 136.8, 59.36 125.07 M59.36 125.07 C43.37 138.37, 24.16 154.13, -2.28 175.95 M59.36 125.07 C40.42 141.27, 20.31 156.95, -2.28 175.95 M-2.28 175.95 C-3.06 115.15, -2.87 54.44, 0 0 M-2.28 175.95 C-0.75 126.64, 0.15 77.73, 0 0 M0 0 C0 0, 0 0, 0 0 M0 0 C0 0, 0 0, 0 0" stroke="#000000" stroke-width="4" fill="none"></path></g></g><mask></mask><g stroke-linecap="round"><g transform="translate(425.4849099302645 75.30164540256101) rotate(0 110.5703125 0.083984375)"><path d="M0.81 0.29 C37.6 0.26, 183.07 -0.96, 219.99 -0.79 M-0.22 -0.6 C36.98 -0.46, 185.04 0.22, 222.1 0.24" stroke="#1e1e1e" stroke-width="4" fill="none"></path></g><g transform="translate(425.4849099302645 75.30164540256101) rotate(0 110.5703125 0.083984375)"><path d="M198.58 8.73 C204.73 4.62, 208.27 6.45, 222.1 0.24 M198.58 8.73 C207.88 6.06, 217.1 2.83, 222.1 0.24" stroke="#1e1e1e" stroke-width="4" fill="none"></path></g><g transform="translate(425.4849099302645 75.30164540256101) rotate(0 110.5703125 0.083984375)"><path d="M198.63 -8.38 C204.69 -8.39, 208.21 -2.47, 222.1 0.24 M198.63 -8.38 C208.07 -4.32, 217.27 -0.82, 222.1 0.24" stroke="#1e1e1e" stroke-width="4" fill="none"></path></g></g><mask></mask><g stroke-linecap="round"><g transform="translate(643.1020974302645 403.332895402561) rotate(0 185.6875 -68.458984375)"><path d="M1.05 0.73 C63.17 -22.05, 309.8 -113.99, 371.68 -136.79 M0.15 0.07 C62.22 -22.48, 308.9 -112.18, 370.9 -135.18" stroke="#1e1e1e" stroke-width="4" fill="none"></path></g><g transform="translate(643.1020974302645 403.332895402561) rotate(0 185.6875 -68.458984375)"><path d="M351.79 -119.06 C357.18 -122.22, 360.33 -124.58, 370.9 -135.18 M351.79 -119.06 C358.09 -125.37, 366.58 -130.32, 370.9 -135.18" stroke="#1e1e1e" stroke-width="4" fill="none"></path></g><g transform="translate(643.1020974302645 403.332895402561) rotate(0 185.6875 -68.458984375)"><path d="M345.9 -135.12 C352.56 -134.84, 356.99 -133.71, 370.9 -135.18 M345.9 -135.12 C354.32 -135.38, 365 -134.33, 370.9 -135.18" stroke="#1e1e1e" stroke-width="4" fill="none"></path></g></g><mask></mask><g stroke-linecap="round"><g transform="translate(990.1645974302645 584.434457902561) rotate(0 110.412109375 1.15234375)"><path d="M-0.21 -0.82 C36.56 -0.27, 183.24 2.98, 220.13 3.3 M-1.78 1.37 C35.43 1.6, 185.42 1.62, 222.48 1.7" stroke="#1e1e1e" stroke-width="4" fill="none"></path></g><g transform="translate(990.1645974302645 584.434457902561) rotate(0 110.412109375 1.15234375)"><path d="M198.98 10.23 C203.71 6.9, 212.82 6.42, 222.48 1.7 M198.98 10.23 C203.95 8.08, 208.43 6.04, 222.48 1.7" stroke="#1e1e1e" stroke-width="4" fill="none"></path></g><g transform="translate(990.1645974302645 584.434457902561) rotate(0 110.412109375 1.15234375)"><path d="M199 -6.88 C203.72 -5.77, 212.83 -1.82, 222.48 1.7 M199 -6.88 C203.85 -5.57, 208.33 -4.15, 222.48 1.7" stroke="#1e1e1e" stroke-width="4" fill="none"></path></g></g><mask></mask></svg>